<?xml version="1.0" encoding="utf-8" ?>
<svg baseProfile="tiny" height="256px" version="1.2" width="256px" xmlns="http://www.w3.org/2000/svg" xmlns:ev="http://www.w3.org/2001/xml-events" xmlns:xlink="http://www.w3.org/1999/xlink"><defs /><rect fill="none" height="256px" width="256px" x="0" y="0" /><path d="M 125,0 L 124,1 L 118,1 L 117,2 L 107,2 L 106,3 L 101,3 L 100,4 L 96,4 L 95,5 L 92,5 L 91,6 L 88,6 L 87,7 L 84,7 L 83,8 L 82,8 L 81,9 L 79,9 L 78,10 L 76,10 L 75,11 L 73,11 L 72,12 L 71,12 L 70,13 L 69,13 L 68,14 L 66,14 L 64,16 L 62,16 L 61,17 L 60,17 L 58,19 L 57,19 L 56,20 L 55,20 L 54,21 L 53,21 L 51,23 L 50,23 L 48,25 L 47,25 L 44,28 L 43,28 L 39,32 L 38,32 L 30,40 L 30,41 L 24,47 L 24,48 L 22,50 L 22,51 L 20,53 L 20,54 L 18,56 L 18,57 L 16,59 L 16,60 L 15,61 L 15,62 L 14,63 L 14,64 L 12,66 L 12,68 L 11,69 L 11,70 L 10,71 L 10,73 L 8,75 L 8,78 L 7,79 L 7,80 L 6,81 L 6,84 L 5,85 L 5,86 L 4,87 L 4,91 L 3,92 L 3,95 L 2,96 L 2,103 L 1,104 L 1,106 L 0,107 L 0,142 L 1,143 L 1,147 L 2,148 L 2,156 L 3,157 L 3,160 L 4,161 L 4,166 L 5,167 L 5,169 L 6,170 L 6,173 L 7,174 L 7,176 L 8,177 L 8,180 L 10,182 L 10,184 L 11,185 L 11,186 L 12,187 L 12,189 L 14,191 L 14,193 L 16,195 L 16,197 L 18,199 L 18,200 L 20,202 L 20,203 L 22,205 L 22,206 L 26,210 L 26,211 L 41,226 L 42,226 L 45,229 L 46,229 L 49,232 L 50,232 L 52,234 L 53,234 L 54,235 L 55,235 L 57,237 L 58,237 L 59,238 L 60,238 L 61,239 L 62,239 L 63,240 L 64,240 L 65,241 L 66,241 L 67,242 L 68,242 L 69,243 L 70,243 L 71,244 L 73,244 L 74,245 L 75,245 L 76,246 L 79,246 L 80,247 L 81,247 L 82,248 L 85,248 L 86,249 L 88,249 L 89,250 L 92,250 L 93,251 L 97,251 L 98,252 L 102,252 L 103,253 L 113,253 L 114,254 L 118,254 L 119,255 L 136,255 L 137,254 L 142,254 L 143,253 L 151,253 L 152,252 L 156,252 L 157,251 L 160,251 L 161,250 L 164,250 L 165,249 L 167,249 L 168,248 L 170,248 L 171,247 L 172,247 L 173,246 L 175,246 L 176,245 L 177,245 L 178,244 L 179,244 L 180,243 L 181,243 L 182,242 L 183,242 L 184,241 L 185,241 L 187,239 L 188,239 L 189,238 L 190,238 L 192,236 L 193,236 L 198,231 L 199,231 L 206,224 L 207,224 L 208,225 L 208,229 L 209,230 L 209,234 L 210,235 L 210,241 L 211,242 L 211,245 L 212,246 L 212,248 L 213,249 L 253,249 L 254,248 L 255,248 L 255,120 L 142,120 L 142,158 L 199,158 L 201,160 L 201,167 L 200,168 L 200,174 L 199,175 L 199,176 L 198,177 L 198,179 L 196,181 L 196,182 L 195,183 L 195,184 L 194,185 L 194,186 L 192,188 L 192,189 L 182,199 L 181,199 L 179,201 L 178,201 L 176,203 L 175,203 L 173,205 L 171,205 L 170,206 L 169,206 L 168,207 L 167,207 L 166,208 L 164,208 L 163,209 L 162,209 L 161,210 L 158,210 L 157,211 L 154,211 L 153,212 L 148,212 L 147,213 L 140,213 L 139,214 L 129,214 L 128,213 L 122,213 L 121,212 L 116,212 L 115,211 L 112,211 L 111,210 L 109,210 L 108,209 L 106,209 L 105,208 L 103,208 L 102,207 L 101,207 L 100,206 L 99,206 L 98,205 L 96,205 L 94,203 L 93,203 L 92,202 L 91,202 L 89,200 L 88,200 L 86,198 L 85,198 L 77,190 L 77,189 L 73,185 L 73,184 L 71,182 L 71,181 L 70,180 L 70,179 L 69,178 L 69,177 L 67,175 L 67,172 L 65,170 L 65,167 L 64,166 L 64,165 L 63,164 L 63,161 L 62,160 L 62,158 L 61,157 L 61,152 L 60,151 L 60,148 L 59,147 L 59,135 L 58,134 L 58,119 L 59,118 L 59,106 L 60,105 L 60,102 L 61,101 L 61,96 L 62,95 L 62,94 L 63,93 L 63,90 L 64,89 L 64,88 L 65,87 L 65,84 L 66,83 L 66,82 L 67,81 L 67,80 L 68,79 L 68,78 L 69,77 L 69,76 L 70,75 L 70,74 L 71,73 L 71,72 L 73,70 L 73,69 L 79,63 L 79,62 L 80,61 L 81,61 L 88,54 L 89,54 L 91,52 L 92,52 L 93,51 L 94,51 L 95,50 L 96,50 L 98,48 L 100,48 L 101,47 L 103,47 L 104,46 L 105,46 L 106,45 L 109,45 L 110,44 L 111,44 L 112,43 L 117,43 L 118,42 L 125,42 L 126,41 L 137,41 L 138,42 L 145,42 L 146,43 L 151,43 L 152,44 L 154,44 L 155,45 L 158,45 L 159,46 L 160,46 L 161,47 L 163,47 L 164,48 L 165,48 L 166,49 L 167,49 L 168,50 L 169,50 L 171,52 L 172,52 L 174,54 L 175,54 L 178,57 L 179,57 L 184,62 L 184,63 L 186,65 L 186,66 L 188,68 L 188,69 L 190,71 L 190,73 L 192,75 L 192,77 L 193,78 L 193,79 L 194,80 L 194,83 L 195,84 L 195,85 L 196,85 L 197,86 L 198,86 L 199,85 L 217,85 L 218,84 L 235,84 L 236,83 L 248,83 L 248,79 L 247,78 L 247,73 L 246,72 L 246,70 L 245,69 L 245,66 L 244,65 L 244,64 L 243,63 L 243,60 L 242,59 L 242,58 L 241,57 L 241,55 L 239,53 L 239,51 L 237,49 L 237,47 L 235,45 L 235,44 L 233,42 L 233,41 L 229,37 L 229,36 L 221,28 L 220,28 L 217,25 L 216,25 L 213,22 L 212,22 L 210,20 L 209,20 L 208,19 L 207,19 L 205,17 L 204,17 L 203,16 L 202,16 L 201,15 L 200,15 L 199,14 L 198,14 L 197,13 L 196,13 L 195,12 L 194,12 L 193,11 L 191,11 L 190,10 L 189,10 L 188,9 L 186,9 L 185,8 L 183,8 L 182,7 L 179,7 L 178,6 L 176,6 L 175,5 L 172,5 L 171,4 L 167,4 L 166,3 L 161,3 L 160,2 L 149,2 L 148,1 L 142,1 L 141,0 Z" fill="white" /></svg>